# xmcd
# 
# Track frame offsets:
#     150
#     22644
#     43972
#     66455
#     87882
# 
# Disc length: 1454
# 
# Revision: 2
# Processed by: cddbd v1.5.2PL0 Copyright (c) Steve Scherf et al.
# Submitted via: BonkEnc v1.0.6
# 
DISCID=3905ac05
DTITLE=EXILE - I Believe
DYEAR=0
DGENRE=JPop
TTITLE0=I Believe
TTITLE1=君がいるから
TTITLE2=I Believe　(Instrumental)
TTITLE3=君がいるから　(Instrumental)
TTITLE4=HERO
EXTD=
EXTT0=
EXTT1=
EXTT2=
EXTT3=
EXTT4=
PLAYORDER=
